#N canvas 4 21 1920 966 12;
#X obj 565 121 bng 15 250 50 0 empty empty data 17 7 0 10 #fcfcfc #000000 #000000;
#X obj 543 645 spigot;
#X obj 581 621 tgl 15 0 empty empty empty 17 7 0 10 #fcfcfc #000000 #000000 0 1;
#X obj 542 689 print debug;
#X obj 179 347 cnv 15 350 100 empty empty CLICK\ HERE\ TO\ CONNECT! 0 -10 0 14 #fcfcc4 #404040 0;
#X msg 194 393 disconnect;
#X obj 40 424 netsend -u -b;
#X obj 542 235 oscparse;
#X text 605 236 Convert raw OSC to PD message;
#X obj 542 264 list trim;
#X obj 40 279 list prepend send;
#X obj 40 305 list trim;
#X text 40 195 WARNING: oscfornat automatically prefixes / to the address;
#X text 600 620 Print all the messages;
#X obj 586 437 unpack 0 0 0 0;
#X floatatom 584 462 5 0 0 0 - - - 0;
#X floatatom 629 462 5 0 0 0 - - - 0;
#X floatatom 681 462 5 0 0 0 - - - 0;
#X floatatom 725 461 5 0 0 0 - - - 0;
#X obj 785 444 unpack 0 0 0 0;
#X floatatom 783 469 5 0 0 0 - - - 0;
#X floatatom 828 469 5 0 0 0 - - - 0;
#X floatatom 880 469 5 0 0 0 - - - 0;
#X floatatom 924 468 5 0 0 0 - - - 0;
#X msg 194 361 disconnect \, connect atom-0CEFBC.local 8888;
#X obj 991 445 unpack 0 0 0 0;
#X floatatom 989 470 5 0 0 0 - - - 0;
#X floatatom 1034 470 5 0 0 0 - - - 0;
#X floatatom 1086 470 5 0 0 0 - - - 0;
#X floatatom 1130 469 5 0 0 0 - - - 0;
#X obj 1215 453 unpack 0 0 0 0;
#X floatatom 1213 478 5 0 0 0 - - - 0;
#X floatatom 1258 478 5 0 0 0 - - - 0;
#X floatatom 1310 478 5 0 0 0 - - - 0;
#X floatatom 1354 477 5 0 0 0 - - - 0;
#X obj 1423 467 unpack 0 0 0 0;
#X floatatom 1421 492 5 0 0 0 - - - 0;
#X floatatom 1466 492 5 0 0 0 - - - 0;
#X floatatom 1518 492 5 0 0 0 - - - 0;
#X floatatom 1562 491 5 0 0 0 - - - 0;
#X obj 1668 470 unpack 0 0 0 0;
#X floatatom 1666 495 5 0 0 0 - - - 0;
#X floatatom 1711 495 5 0 0 0 - - - 0;
#X floatatom 1763 495 5 0 0 0 - - - 0;
#X floatatom 1817 492 5 0 0 0 - - - 0;
#X obj 622 294 route a d;
#X text 835 501 ANALOG;
#X text 1458 535 DIGITAL;
#X obj 765 388 route 0 1 2;
#X obj 1209 396 route 0 1 2;
#X msg 45 91 0 13 1;
#X msg 119 93 0 13 0, f 9;
#X obj 29 167 oscformat -f iii dw;
#X obj 247 161 oscformat -f iii aw;
#X obj 541 92 netreceive -u -b 7777;
#X msg 287 103 0 3 255;
#X msg 361 105 0 3 0, f 9;
#X msg 371 61 0 3 \$1, f 9;
#X floatatom 378 26 5 0 0 0 - - - 0;
#X text 196 474 Fader;
#X obj 114 586 bng 15 250 50 0 empty empty data 17 7 0 10 #fcfcfc #000000 #000000;
#X msg 197 498 disconnect \, connect atom-07B674.local 8887;
#X obj 76 539 netreceive -u -b 7776;
#X obj 62 1203 spigot;
#X obj 100 1179 tgl 15 0 empty empty empty 17 7 0 10 #fcfcfc #000000 #000000 0 1;
#X obj 61 1247 print debug;
#X obj 61 793 oscparse;
#X text 124 794 Convert raw OSC to PD message;
#X obj 61 822 list trim;
#X text 119 1178 Print all the messages;
#X floatatom 155 919 5 0 0 0 - - - 0;
#X floatatom 253 912 5 0 0 0 - - - 0;
#X floatatom 350 920 5 0 0 0 - - - 0;
#X obj 151 869 route faderGauche faderCentre faderDroit;
#X obj 592 1180 cnv 15 350 100 empty empty CLICK\ HERE\ TO\ CONNECT! 0 -10 0 14 #fcfcc4 #404040 0;
#X msg 607 1226 disconnect;
#X obj 453 1257 netsend -u -b;
#X obj 453 1112 list prepend send;
#X obj 453 1138 list trim;
#X obj 196 982 oscformat -f i faderGauche;
#X msg 607 1194 disconnect \, connect 127.0.0.1 8776;
#X obj 422 984 oscformat -f i faderCentre;
#X obj 625 983 oscformat -f i faderDroit;
#X obj 1420 580 oscformat -f i x43SwitchBlanc;
#X obj 1426 621 oscformat -f i x43Switch;
#X obj 1411 666 oscformat -f i x43BoutonVert;
#X obj 1410 701 oscformat -f i x43BoutonRouge;
#X obj 990 562 oscformat -f i x42BoutonBleu;
#X obj 979 638 oscformat -f i x42BoutonBleuReparation;
#X obj 991 603 oscformat -f i x42SwitchRouge;
#X obj 981 681 oscformat -f i x42Switch;
#X obj 1664 583 oscformat -f i x44BoutonRouge;
#X obj 1670 624 oscformat -f i x44BoutonVert;
#X obj 1655 669 oscformat -f i x44SwitchBleu;
#X obj 1654 704 oscformat -f i x44Switch;
#X connect 1 0 3 0;
#X connect 2 0 1 1;
#X connect 5 0 6 0;
#X connect 7 0 9 0;
#X connect 9 0 45 0;
#X connect 9 0 1 0;
#X connect 10 0 11 0;
#X connect 11 0 6 0;
#X connect 14 0 15 0;
#X connect 14 1 16 0;
#X connect 14 2 17 0;
#X connect 14 3 18 0;
#X connect 19 0 20 0;
#X connect 19 1 21 0;
#X connect 19 2 22 0;
#X connect 19 3 23 0;
#X connect 24 0 6 0;
#X connect 25 0 26 0;
#X connect 25 1 27 0;
#X connect 25 2 28 0;
#X connect 25 3 29 0;
#X connect 30 0 31 0;
#X connect 30 1 32 0;
#X connect 30 2 33 0;
#X connect 30 3 34 0;
#X connect 31 0 87 0;
#X connect 32 0 88 0;
#X connect 33 0 89 0;
#X connect 34 0 90 0;
#X connect 35 0 36 0;
#X connect 35 1 37 0;
#X connect 35 2 38 0;
#X connect 35 3 39 0;
#X connect 36 0 85 0;
#X connect 37 0 86 0;
#X connect 38 0 83 0;
#X connect 39 0 84 0;
#X connect 40 0 41 0;
#X connect 40 1 42 0;
#X connect 40 2 43 0;
#X connect 40 3 44 0;
#X connect 41 0 91 0;
#X connect 42 0 92 0;
#X connect 43 0 93 0;
#X connect 44 0 94 0;
#X connect 45 0 48 0;
#X connect 45 1 49 0;
#X connect 48 0 14 0;
#X connect 48 1 19 0;
#X connect 48 2 25 0;
#X connect 49 0 30 0;
#X connect 49 1 35 0;
#X connect 49 2 40 0;
#X connect 50 0 52 0;
#X connect 51 0 52 0;
#X connect 52 0 10 0;
#X connect 53 0 10 0;
#X connect 54 0 0 0;
#X connect 54 0 7 0;
#X connect 55 0 53 0;
#X connect 56 0 53 0;
#X connect 57 0 53 0;
#X connect 58 0 57 0;
#X connect 61 0 6 0;
#X connect 62 0 60 0;
#X connect 62 0 66 0;
#X connect 63 0 65 0;
#X connect 64 0 63 1;
#X connect 66 0 68 0;
#X connect 68 0 63 0;
#X connect 68 0 73 0;
#X connect 70 0 79 0;
#X connect 71 0 81 0;
#X connect 72 0 82 0;
#X connect 73 0 70 0;
#X connect 73 1 71 0;
#X connect 73 2 72 0;
#X connect 75 0 76 0;
#X connect 77 0 78 0;
#X connect 78 0 76 0;
#X connect 79 0 77 0;
#X connect 80 0 76 0;
#X connect 81 0 77 0;
#X connect 82 0 77 0;
#X connect 83 0 77 0;
#X connect 84 0 77 0;
#X connect 85 0 77 0;
#X connect 86 0 77 0;
#X connect 87 0 77 0;
#X connect 88 0 77 0;
#X connect 89 0 77 0;
#X connect 90 0 77 0;
#X connect 91 0 77 0;
#X connect 92 0 77 0;
#X connect 93 0 77 0;
#X connect 94 0 77 0;
